<svg id="_anim-bg" data-name="#anim-bg" xmlns="http://www.w3.org/2000/svg" viewBox="0 0 541.44 529.44"><title>anim-bg</title><path d="M287.76.48h22.08a6.33,6.33,0,0,0,2.37.32,84.75,84.75,0,0,1,9.81.65,426.62,426.62,0,0,1,42.67,6.37c17,3.34,33.92,7.33,50.81,11.3,24.68,5.79,49.24,12.05,73.29,20.17C514.42,48,539.07,58.68,562,73.21c29,18.4,52.25,42.27,68.64,72.6a156.33,156.33,0,0,1,17.89,54.64c.36,2.78.06,5.6.69,8.35v14.4c-.56,2-.23,4.14-.48,6.2a118.62,118.62,0,0,1-6.49,27.23c-3.8,10.24-8.84,19.86-14.16,29.36-6.18,11-12.81,21.78-18.65,33a137.77,137.77,0,0,0-11.22,27.49c-3.61,13.44-3.81,26.84.38,40.21a126.48,126.48,0,0,0,10.63,23.58c5.37,9.64,11.34,18.93,16.53,28.68,4.08,7.65,7.72,15.49,9.42,24,3.89,19.62-1.73,35.87-17.63,48.25-7.48,5.83-16.1,9.47-25.15,12.09a159,159,0,0,1-34.92,5.86,37.29,37.29,0,0,0-7.14.74H498a8.86,8.86,0,0,0-2.85-.31c-20.71-.2-41.43,0-62.15-.43-21.43-.4-42.87.36-64.29-.54a137.28,137.28,0,0,1-30.77-4.59A67.58,67.58,0,0,1,318,515.32c-11.44-7.64-17.41-18.36-18.45-32-.45-5.91-.34-11.83-.77-17.74a62.16,62.16,0,0,0-5.7-21.68,32.32,32.32,0,0,0-4.48-7.08,22.46,22.46,0,0,0-14.25-8.11,34.91,34.91,0,0,0-11.45.39,94.8,94.8,0,0,0-15.24,4.21c-6.5,2.23-12.89,4.81-19.56,6.54a90.68,90.68,0,0,0-15.34,5.48c-4.2,1.93-5.53,1.6-8.55-1.86-.74-.84-1.43-1.73-2.1-2.63-2.11-2.82-4.13-5.7-6.3-8.47a147.66,147.66,0,0,1-15.69-25.5c-3.08-6.15-6.06-12.35-9.14-18.51a147.15,147.15,0,0,0-17.85-27.8c-6.66-8.09-13.19-16.28-19.44-24.7-14-18.87-22.61-39.81-24.79-63.31-.26-2.84-.07-5.78-1.17-8.52V241.44c.87-2.46.73-5,1-7.58A265,265,0,0,1,117.52,188a433.51,433.51,0,0,1,21.82-59.14c7.48-16.81,15.47-33.38,24.94-49.18,9.58-16,20.57-30.87,34.29-43.61A125.82,125.82,0,0,1,240.46,10a152.19,152.19,0,0,1,39-8.76C282.2,1,285,1.1,287.76.48Z" transform="translate(-107.76 -0.48)" style="fill:#502455"/></svg>