<svg xmlns="http://www.w3.org/2000/svg" >
  <symbol fill="#C0DBC6" viewBox="0 0 52.86 51.55" id="dribbble">
    <path d="M24.48 18.8c-2.85-5.05-5.91-9.31-6.52-10.15-4.91 2.34-8.58 6.86-9.76 12.3h.18c1.63 0 8.44-.13 16.1-2.15zM28.71 27.77c-9.76 3.4-13.46 10.05-13.97 11.05 3.01 2.32 6.78 3.71 10.87 3.71 2.44 0 4.76-.49 6.88-1.38-.29-1.66-1.32-7.01-3.77-13.38.01-.01 0-.01-.01 0zM37.36 11.34a17.769 17.769 0 0 0-11.74-4.42c-1.38 0-2.73.16-4.02.46.72.98 3.77 5.19 6.56 10.28 6.01-2.27 8.71-5.64 9.2-6.32zM26.84 24.78c.19-.06.39-.12.59-.18-.42-.95-.88-1.91-1.36-2.85-7.91 2.35-15.59 2.53-17.8 2.53H7.8c0 .15-.01.29-.01.44 0 4.52 1.7 8.65 4.49 11.79.75-1.24 5.65-8.86 14.56-11.73z"/>
    <path d="M46.72 0h-43C1.67 0 0 1.67 0 3.72v42.99a3.72 3.72 0 0 0 3.72 3.72h42.99a3.72 3.72 0 0 0 3.72-3.72V3.72A3.71 3.71 0 0 0 46.72 0zm-21.1 45.76c-11.64 0-21.1-9.45-21.1-21.07 0-11.62 9.46-21.07 21.1-21.07 11.63 0 21.1 9.45 21.1 21.07 0 11.62-9.47 21.07-21.1 21.07z"/>
    <path d="M29.63 20.51c.4.82.79 1.66 1.14 2.5.12.28.24.57.36.85 1.38-.17 2.75-.24 4.06-.24 4.05 0 7.45.64 8.25.8-.07-4.1-1.53-7.87-3.94-10.85-.62.8-3.63 4.37-9.87 6.94zM32.3 26.88c2.22 6.11 3.18 11.13 3.42 12.5 3.9-2.69 6.69-6.89 7.49-11.75-.68-.21-3.59-1.02-7.32-1.02-1.14 0-2.35.08-3.59.27z"/>
  </symbol>
</svg>
