<svg id="_explore-bg" data-name="#explore-bg" xmlns="http://www.w3.org/2000/svg" viewBox="0 0 248.21 324.07"><title>explore-bg</title><path d="M475.2,654.24h-6c-2.11-.18-4.22-.32-6.32-.55a92.29,92.29,0,0,1-35.76-11.37A81.34,81.34,0,0,1,406.63,626c-8.15-9-14.31-19.32-19.62-30.17-3.93-8-7.43-16.21-11-24.4q-9.27-21.5-18.15-43.13c-6.75-16.47-13.57-32.92-18.88-49.93-4.63-14.86-8.19-29.93-9.08-45.53a118.46,118.46,0,0,1,1.13-25.59,89.91,89.91,0,0,1,29-53.48A91.79,91.79,0,0,1,385.85,337c15.31-6.57,31.13-8.55,47.54-5.27,11.62,2.32,22.36,6.89,32.62,12.7a236.8,236.8,0,0,1,31.39,21.83q30.2,24.28,60.27,48.72c4.42,3.57,8.87,7.07,12.51,11.51,5.06,6.18,7.87,13.12,7.74,21.16a51.41,51.41,0,0,1-2.67,14.58c-2.44,7.76-5.75,15.18-8.72,22.74a112.22,112.22,0,0,0-5.89,19.24c-2.63,13.29-2.1,26.66-1.09,40,.52,6.89,1.12,13.77.68,20.71a101.44,101.44,0,0,1-5.12,26.42c-5.93,17.37-15.58,32.24-29.88,44a81.73,81.73,0,0,1-44.66,18.47A38.5,38.5,0,0,0,475.2,654.24Z" transform="translate(-329.71 -330.17)" style="fill:#9ad4b8"/></svg>