<svg xmlns="http://www.w3.org/2000/svg" viewBox="0 0 52.86 51.55">
    <path fill="#C0DBC6" fill-rule="evenodd" d="M26.43 0C11.83 0 0 11.83 0 26.43 0 38.12 7.57 48 18.07 51.5c1.32.23 1.82-.56 1.82-1.26 0-.63-.03-2.71-.03-4.92-6.64 1.22-8.36-1.62-8.89-3.11-.3-.76-1.59-3.11-2.71-3.73-.93-.5-2.25-1.72-.03-1.75 2.08-.03 3.57 1.92 4.06 2.71 2.38 4 6.18 2.87 7.7 2.18.23-1.72.93-2.87 1.68-3.53-5.88-.66-12.03-2.94-12.03-13.05 0-2.87 1.02-5.25 2.71-7.1-.26-.66-1.19-3.37.26-7 0 0 2.21-.69 7.27 2.71 2.11-.59 4.36-.89 6.61-.89s4.49.3 6.61.89c5.05-3.44 7.27-2.71 7.27-2.71 1.45 3.63.53 6.34.26 7 1.68 1.85 2.71 4.2 2.71 7.1 0 10.14-6.18 12.39-12.06 13.05.96.83 1.78 2.41 1.78 4.89 0 3.53-.03 6.38-.03 7.27 0 .69.5 1.52 1.82 1.26a26.48 26.48 0 0 0 18.01-25.07C52.86 11.83 41.03 0 26.43 0z" clip-rule="evenodd"/>
</svg>
