<svg xmlns="http://www.w3.org/2000/svg" xmlns:xlink="http://www.w3.org/1999/xlink" viewBox="0 0 674.64 875.76"><defs><style>.cls-1{fill:#e3e3e3;}.cls-2{fill:#502455;}.cls-3{fill:#f26764;}.cls-4{fill:#9ad4b8;}.cls-5{fill:#3f657d;}.cls-6,.cls-7{fill:none;stroke:#fff;stroke-miterlimit:10;}.cls-7{stroke-width:3px;}</style></defs><title>headshot</title><g id="Layer_12" data-name="Layer 12"><rect class="cls-1" width="674.64" height="875.52"/></g><g id="_anim-bg" data-name="#anim-bg"><path class="cls-2" d="M287.76.48h22.08a6.33,6.33,0,0,0,2.37.32,84.75,84.75,0,0,1,9.81.65,426.62,426.62,0,0,1,42.67,6.37c17,3.34,33.92,7.33,50.81,11.3,24.68,5.79,49.24,12.05,73.29,20.17C514.42,48,539.07,58.68,562,73.21c29,18.4,52.25,42.27,68.64,72.6a156.33,156.33,0,0,1,17.89,54.64c.36,2.78.06,5.6.69,8.35v14.4c-.56,2-.23,4.14-.48,6.2a118.62,118.62,0,0,1-6.49,27.23c-3.8,10.24-8.84,19.86-14.16,29.36-6.18,11-12.81,21.78-18.65,33a137.77,137.77,0,0,0-11.22,27.49c-3.61,13.44-3.81,26.84.38,40.21a126.48,126.48,0,0,0,10.63,23.58c5.37,9.64,11.34,18.93,16.53,28.68,4.08,7.65,7.72,15.49,9.42,24,3.89,19.62-1.73,35.87-17.63,48.25-7.48,5.83-16.1,9.47-25.15,12.09a159,159,0,0,1-34.92,5.86,37.29,37.29,0,0,0-7.14.74H498a8.86,8.86,0,0,0-2.85-.31c-20.71-.2-41.43,0-62.15-.43-21.43-.4-42.87.36-64.29-.54a137.28,137.28,0,0,1-30.77-4.59A67.58,67.58,0,0,1,318,515.32c-11.44-7.64-17.41-18.36-18.45-32-.45-5.91-.34-11.83-.77-17.74a62.16,62.16,0,0,0-5.7-21.68,32.32,32.32,0,0,0-4.48-7.08,22.46,22.46,0,0,0-14.25-8.11,34.91,34.91,0,0,0-11.45.39,94.8,94.8,0,0,0-15.24,4.21c-6.5,2.23-12.89,4.81-19.56,6.54a90.68,90.68,0,0,0-15.34,5.48c-4.2,1.93-5.53,1.6-8.55-1.86-.74-.84-1.43-1.73-2.1-2.63-2.11-2.82-4.13-5.7-6.3-8.47a147.66,147.66,0,0,1-15.69-25.5c-3.08-6.15-6.06-12.35-9.14-18.51a147.15,147.15,0,0,0-17.85-27.8c-6.66-8.09-13.19-16.28-19.44-24.7-14-18.87-22.61-39.81-24.79-63.31-.26-2.84-.07-5.78-1.17-8.52V241.44c.87-2.46.73-5,1-7.58A265,265,0,0,1,117.52,188a433.51,433.51,0,0,1,21.82-59.14c7.48-16.81,15.47-33.38,24.94-49.18,9.58-16,20.57-30.87,34.29-43.61A125.82,125.82,0,0,1,240.46,10a152.19,152.19,0,0,1,39-8.76C282.2,1,285,1.1,287.76.48Z"/></g><g id="_tinker-bg" data-name="#tinker-bg"><path class="cls-3" d="M285.84,694.08H265.2a9.75,9.75,0,0,0-1.38-.38c-3.34-.38-6.68-.67-10-1.12a229.6,229.6,0,0,1-48.06-12.06c-21-7.63-40.73-17.75-59.94-29C124.34,638.94,103.75,625,83.12,611.1a285.4,285.4,0,0,1-27-20.37A141.52,141.52,0,0,1,33.58,567C26.9,557.77,22,547.82,20.25,536.48a6.55,6.55,0,0,0-.81-2.24v-12c1.08-1.86,1-4,1.44-6,2.4-10.68,7.18-20.33,13-29.51,5.11-8.13,10.5-16.07,15.61-24.19,14.82-23.58,23.87-49.27,28-76.75a229.14,229.14,0,0,0,2.18-23.4c.24-4.95.31-9.91.06-14.86-.52-10.55-2-21-3-31.51a90.55,90.55,0,0,1,0-18.91c1.27-11,5.9-20.48,12.81-29,5.35-6.58,10.74-13.11,16.39-19.44A471.52,471.52,0,0,1,152,203.85a547.3,547.3,0,0,1,59-43.61A601.58,601.58,0,0,1,387.88,83.08c17.05-4.38,34.27-7.87,51.86-9.4,2.78-.25,5.6,0,8.34-.72h20.64a9.5,9.5,0,0,0,1.64.32,101.41,101.41,0,0,1,10.73,1,126.69,126.69,0,0,1,40.3,11.82c19.74,9.74,35.12,24.27,46.65,42.94,11.41,18.47,17.84,38.64,20.36,60.14.33,2.86.14,5.75.8,8.57v32.16a17.43,17.43,0,0,0-.34,2.36c-.1,8-1.19,15.95-2.16,23.88q-3.11,25.62-8.48,50.87a608.06,608.06,0,0,1-22.31,78.66,636.89,636.89,0,0,1-36.11,82.08q-13,24.75-28.09,48.32a691.4,691.4,0,0,1-64,85c-14.63,16.54-29.62,32.75-46.13,47.46a219.8,219.8,0,0,1-33.38,25c-16.82,10-34.76,16.92-54.29,19.36C291.21,693.27,288.46,693.25,285.84,694.08Z"/></g><g id="_explore-bg" data-name="#explore-bg"><path class="cls-4" d="M475.2,654.24h-6c-2.11-.18-4.22-.32-6.32-.55a92.29,92.29,0,0,1-35.76-11.37A81.34,81.34,0,0,1,406.63,626c-8.15-9-14.31-19.32-19.62-30.17-3.93-8-7.43-16.21-11-24.4q-9.27-21.5-18.15-43.13c-6.75-16.47-13.57-32.92-18.88-49.93-4.63-14.86-8.19-29.93-9.08-45.53a118.46,118.46,0,0,1,1.13-25.59,89.91,89.91,0,0,1,29-53.48A91.79,91.79,0,0,1,385.85,337c15.31-6.57,31.13-8.55,47.54-5.27,11.62,2.32,22.36,6.89,32.62,12.7a236.8,236.8,0,0,1,31.39,21.83q30.2,24.28,60.27,48.72c4.42,3.57,8.87,7.07,12.51,11.51,5.06,6.18,7.87,13.12,7.74,21.16a51.41,51.41,0,0,1-2.67,14.58c-2.44,7.76-5.75,15.18-8.72,22.74a112.22,112.22,0,0,0-5.89,19.24c-2.63,13.29-2.1,26.66-1.09,40,.52,6.89,1.12,13.77.68,20.71a101.44,101.44,0,0,1-5.12,26.42c-5.93,17.37-15.58,32.24-29.88,44a81.73,81.73,0,0,1-44.66,18.47A38.5,38.5,0,0,0,475.2,654.24Z"/></g><g id="_dev-bg" data-name="#dev-bg"><path class="cls-5" d="M35.76,713.76V700.08c.06-.35.14-.7.17-1.06a128.58,128.58,0,0,1,3.52-23.09c6.07-24.88,17.68-47.06,33-67.41a271.64,271.64,0,0,1,41.9-43.77c25.42-21.5,53.12-39.63,82.47-55.28a266.89,266.89,0,0,1,48.78-20.26A171.74,171.74,0,0,1,286.36,482,125,125,0,0,1,316.81,484c15.21,3,29.45,8.34,42.1,17.48,11,7.95,19.48,18,24.37,30.78a142.33,142.33,0,0,1,4.86,17.06c2.51,10.26,7,19.46,14.22,27.24a95.71,95.71,0,0,0,17.94,14.73c9.53,6.23,19.71,11.28,29.89,16.32,10.48,5.18,20.85,10.53,30.43,17.29,7.49,5.29,14.36,11.25,19.72,18.77a47.63,47.63,0,0,1,9.2,25.12,55.84,55.84,0,0,1-3.85,23.39c-4.75,12.6-12.39,23.33-21.78,32.85a163,163,0,0,1-25.26,20.4c-12.74,8.61-26.2,16-39.5,23.7-13.07,7.55-25.95,15.37-37.78,24.8-9.81,7.82-18.71,16.51-25.71,27-3.8,5.7-6.92,11.8-10.23,17.78a140.81,140.81,0,0,1-12,19c-8.35,10.62-19.25,16.43-32.7,17.61a54.74,54.74,0,0,0-5.73.36H282.48a15.53,15.53,0,0,0-1.66-.16c-8.12-.11-16.21-.72-24.28-1.54q-17.43-1.77-34.61-5.21c-28.46-5.75-56.21-13.77-82.65-26-19.5-9-37.68-20.06-53.82-34.31-16.36-14.45-29.57-31.3-38.61-51.25A121.11,121.11,0,0,1,36.64,722C36.3,719.24,36.05,716.5,35.76,713.76Z"/></g><g id="_halos" data-name="#halos"><circle class="cls-6" cx="304.61" cy="337.98" r="226.28"/><circle class="cls-6" cx="349.15" cy="265.86" r="226.28"/><circle class="cls-7" cx="326.88" cy="301.92" r="189.6"/></g><g id="_me" data-name="#me"><image id="Layer_2_Image" data-name="Layer 2 Image" width="2474" height="3648" transform="translate(80.88) scale(0.24)" xlink:href="/images/headshot1.png"/></g></svg>