<svg xmlns="http://www.w3.org/2000/svg" viewBox="0 0 52.86 51.55">
  <symbol id="instagram" viewBox="0 0 52.86 51.55">
    <path fill="#C0DBC6" d="M50.34 25.78c0 5.06 0 8.47-.12 10.35-.24 4.59-1.53 8.12-4.12 10.59-2.59 2.47-6 3.88-10.59 4.12-1.88.12-5.41.12-10.35.12-5.06 0-8.47 0-10.35-.12-4.59-.24-8.12-1.53-10.59-4.12-2.47-2.47-3.88-6-4.12-10.59C0 34.25 0 30.72 0 25.78s0-8.47.12-10.35c.24-4.59 1.53-8.12 4.12-10.59 2.47-2.47 6-3.88 10.59-4.12C16.71.6 20.24.6 25.18.6c5.06 0 8.47 0 10.35.12 4.59.24 8.12 1.53 10.59 4.12 2.47 2.59 3.88 6 4.12 10.59-.02 1.88.1 5.29.1 10.35zm-22.7-20.7H19.29c-.82 0-1.88 0-3.18.12-1.29 0-2.47.12-3.41.35-.94.12-1.76.35-2.35.59-1.06.47-2 1.06-2.94 1.88-.82.82-1.41 1.76-1.88 2.94-.24.59-.47 1.41-.59 2.35-.12.94-.24 2-.35 3.41 0 1.29-.12 2.35-.12 3.18V31.66c0 .82 0 1.88.12 3.18 0 1.29.12 2.47.35 3.41.24.94.35 1.76.59 2.35.47 1.06 1.06 2 1.88 2.94.82.82 1.76 1.41 2.94 1.88.59.24 1.41.47 2.35.59.94.12 2 .24 3.41.35 1.41.12 2.35.12 3.18.12H31.05c.82 0 1.88 0 3.18-.12 1.29 0 2.47-.12 3.41-.35.94-.12 1.76-.35 2.35-.59 1.06-.47 2-1.06 2.94-1.88.82-.82 1.41-1.76 1.88-2.94.24-.59.47-1.41.59-2.35.12-.94.24-2 .35-3.41 0-1.29.12-2.35.12-3.18v-3.41-2.47-2.47-3.41c0-.82 0-1.88-.12-3.18 0-1.29-.12-2.47-.35-3.41-.12-.94-.35-1.76-.59-2.35-.47-1.06-1.06-2-1.88-2.94-.82-.82-1.76-1.41-2.94-1.88-.59-.24-1.41-.47-2.35-.59-.94-.12-2-.24-3.41-.35-1.29 0-2.35-.12-3.18-.12h-3.41zm6.59 11.52c2.47 2.47 3.76 5.53 3.76 9.17s-1.29 6.59-3.76 9.17c-2.47 2.47-5.53 3.76-9.17 3.76-3.65 0-6.59-1.29-9.17-3.76-2.47-2.47-3.76-5.53-3.76-9.17s1.29-6.59 3.76-9.17c2.47-2.47 5.53-3.76 9.17-3.76s6.7 1.18 9.17 3.76zm-3.18 15.06c1.65-1.65 2.47-3.65 2.47-5.88s-.82-4.35-2.47-6c-1.65-1.65-3.65-2.47-6-2.47s-4.35.82-6 2.47-2.47 3.65-2.47 6 .82 4.35 2.47 5.88c1.65 1.65 3.65 2.47 6 2.47s4.35-.83 6-2.47zm9.65-21.53c.59.59.94 1.29.94 2.12s-.35 1.53-.94 2.12c-.59.59-1.29.94-2.12.94-.82 0-1.53-.35-2.12-.94-.59-.59-.94-1.29-.94-2.12s.35-1.53.94-2.12 1.29-.94 2.12-.94c.82 0 1.53.36 2.12.94z"/>
  </symbol>
</svg>
