<svg xmlns="http://www.w3.org/2000/svg" viewBox="0 0 52.86 51.55">
  <symbol id="linkedin" viewBox="0 0 52.86 51.55">
    <path fill="#C0DBC6" d="M46.72.56h-43C1.67.56 0 2.23 0 4.28v42.99C0 49.33 1.67 51 3.72 51h42.99a3.72 3.72 0 0 0 3.72-3.72v-43A3.71 3.71 0 0 0 46.72.56zM15.03 43.53H7.45V19.44h7.58v24.09zM11.24 16.1c-2.41 0-4.37-1.84-4.37-4.35S8.83 7.4 11.24 7.4s4.37 1.84 4.37 4.35-1.95 4.35-4.37 4.35zm31.75 27.45h-7.58V30.39c0-3.88-1.65-5.08-3.78-5.08-2.25 0-4.46 1.69-4.46 5.18v13.06h-7.58V19.46h7.29v3.34h.1c.73-1.48 3.3-4.01 7.21-4.01 4.23 0 8.8 2.51 8.8 9.87v14.89z"/>
  </symbol>
</svg>
