<svg id="_tinker-bg" data-name="#tinker-bg" xmlns="http://www.w3.org/2000/svg" viewBox="0 0 569.76 621.12"><title>tinker-bg</title><path d="M285.84,694.08H265.2a9.75,9.75,0,0,0-1.38-.38c-3.34-.38-6.68-.67-10-1.12a229.6,229.6,0,0,1-48.06-12.06c-21-7.63-40.73-17.75-59.94-29C124.34,638.94,103.75,625,83.12,611.1a285.4,285.4,0,0,1-27-20.37A141.52,141.52,0,0,1,33.58,567C26.9,557.77,22,547.82,20.25,536.48a6.55,6.55,0,0,0-.81-2.24v-12c1.08-1.86,1-4,1.44-6,2.4-10.68,7.18-20.33,13-29.51,5.11-8.13,10.5-16.07,15.61-24.19,14.82-23.58,23.87-49.27,28-76.75a229.14,229.14,0,0,0,2.18-23.4c.24-4.95.31-9.91.06-14.86-.52-10.55-2-21-3-31.51a90.55,90.55,0,0,1,0-18.91c1.27-11,5.9-20.48,12.81-29,5.35-6.58,10.74-13.11,16.39-19.44A471.52,471.52,0,0,1,152,203.85a547.3,547.3,0,0,1,59-43.61A601.58,601.58,0,0,1,387.88,83.08c17.05-4.38,34.27-7.87,51.86-9.4,2.78-.25,5.6,0,8.34-.72h20.64a9.5,9.5,0,0,0,1.64.32,101.41,101.41,0,0,1,10.73,1,126.69,126.69,0,0,1,40.3,11.82c19.74,9.74,35.12,24.27,46.65,42.94,11.41,18.47,17.84,38.64,20.36,60.14.33,2.86.14,5.75.8,8.57v32.16a17.43,17.43,0,0,0-.34,2.36c-.1,8-1.19,15.95-2.16,23.88q-3.11,25.62-8.48,50.87a608.06,608.06,0,0,1-22.31,78.66,636.89,636.89,0,0,1-36.11,82.08q-13,24.75-28.09,48.32a691.4,691.4,0,0,1-64,85c-14.63,16.54-29.62,32.75-46.13,47.46a219.8,219.8,0,0,1-33.38,25c-16.82,10-34.76,16.92-54.29,19.36C291.21,693.27,288.46,693.25,285.84,694.08Z" transform="translate(-19.44 -72.96)" style="fill:#f26764"/></svg>